<svg xmlns="http://www.w3.org/2000/svg" width="676.24" height="119.767" viewBox="0 0 676.24 119.767">
  <g id="グループ_47" data-name="グループ 47" transform="translate(-268 -2991.74)">
    <g id="グループ_46" data-name="グループ 46">
      <g id="グループ_45" data-name="グループ 45" transform="translate(138 4)">
        <path id="パス_223" data-name="パス 223" d="M39.04-9.28c-13.28,0-22.08-6.4-22.08-18.72s8.8-18.72,22.08-18.72c8.32,0,14.4,2.8,18.4,9.04L69.2-43.52c-5.12-7.76-15.92-14.24-30-14.24C17.6-57.76,3.92-46.64,3.92-28S17.6,1.76,38.64,1.76c14.64,0,25.44-6.4,30.72-14.32L57.68-18.4C53.52-12,47.36-9.28,39.04-9.28ZM110.4,1.76C132.24,1.76,146-9.28,146-28s-13.76-29.76-35.6-29.76S74.8-46.72,74.8-28,88.56,1.76,110.4,1.76Zm0-11.04C96.48-9.28,87.84-16,87.84-28s8.72-18.72,22.56-18.72S132.96-40,132.96-28,124.24-9.28,110.4-9.28ZM208.88-56v38.4L171.12-56h-13.6V0h12.4V-40.48L210.08,0h11.2V-56Zm82.88,0h-61.6v11.04h24.32V0h12.8V-44.96h24.48ZM343.92,0h13.84L328.08-56h-14L284.4,0h13.68l6-11.84h33.84ZM309.36-22.24l11.6-22.8,11.6,22.8ZM393.6-9.28c-13.28,0-22.08-6.4-22.08-18.72s8.8-18.72,22.08-18.72c8.32,0,14.4,2.8,18.4,9.04l11.76-5.84c-5.12-7.76-15.92-14.24-30-14.24-21.6,0-35.28,11.12-35.28,29.76S372.16,1.76,393.2,1.76c14.64,0,25.44-6.4,30.72-14.32L412.24-18.4C408.08-12,401.92-9.28,393.6-9.28ZM488.96-56h-61.6v11.04h24.32V0h12.8V-44.96h24.48Z" transform="translate(129.5 3046)" fill="#222222"/>
        <path id="パス_224" data-name="パス 224" d="M56.64-56v28.64c0,11.2-6.56,17.92-18.64,17.92S19.36-16.16,19.36-27.36V-56H6.56v29.6C6.56-9.6,17.68,1.76,38,1.76S69.44-9.6,69.44-26.4V-56Zm55.84,21.52c-11.12-.88-19.12-1.36-19.12-6.16,0-5.12,9.28-6.48,16.88-6.4,9.12.08,16.72,2,22.88,6.72l7.04-8.88c-7.12-5.52-17.68-8.56-29.92-8.56-17.28,0-29.76,6.4-29.76,18.08,0,12,14.88,15.52,30.88,16.88C124.24-21.68,130-20.4,130-15.76s-5.76,6.8-17.12,6.8c-11.44,0-20.32-2.96-27.2-9.28L78.32-9.52C86.88-2.24,98.4,1.76,112.56,1.76c19.84,0,30.32-7.68,30.32-18.72C142.88-29.28,130.32-33.04,112.48-34.48Z" transform="translate(659.5 3046)" fill="none" stroke="#222222" stroke-width="1"/>
      </g>
      <rect id="長方形_4" data-name="長方形 4" width="676" height="4" transform="translate(268 3075)" fill="#222222"/>
    </g>
    <path id="パス_3" data-name="パス 3" d="M2334.219,3079l-37.928,33" transform="translate(-1391.291 -2)" fill="none" stroke="#222222" stroke-width="4"/>
  </g>
</svg>
