<svg xmlns="http://www.w3.org/2000/svg" width="60.52" height="486.04" viewBox="0 0 60.52 486.04">
  <path id="パス_226" data-name="パス 226" d="M39.04-9.28c-13.28,0-22.08-6.4-22.08-18.72s8.8-18.72,22.08-18.72c8.32,0,14.4,2.8,18.4,9.04L69.2-43.52c-5.12-7.76-15.92-14.24-30-14.24C17.6-57.76,3.92-46.64,3.92-28S17.6,1.76,38.64,1.76c14.64,0,25.44-6.4,30.72-14.32L57.68-18.4C53.52-12,47.36-9.28,39.04-9.28ZM110.4,1.76C132.24,1.76,146-9.28,146-28s-13.76-29.76-35.6-29.76S74.8-46.72,74.8-28,88.56,1.76,110.4,1.76Zm0-11.04C96.48-9.28,87.84-16,87.84-28s8.72-18.72,22.56-18.72S132.96-40,132.96-28,124.24-9.28,110.4-9.28ZM208.88-56v38.4L171.12-56h-13.6V0h12.4V-40.48L210.08,0h11.2V-56Zm82.88,0h-61.6v11.04h24.32V0h12.8V-44.96h24.48ZM343.92,0h13.84L328.08-56h-14L284.4,0h13.68l6-11.84h33.84ZM309.36-22.24l11.6-22.8,11.6,22.8ZM393.6-9.28c-13.28,0-22.08-6.4-22.08-18.72s8.8-18.72,22.08-18.72c8.32,0,14.4,2.8,18.4,9.04l11.76-5.84c-5.12-7.76-15.92-14.24-30-14.24-21.6,0-35.28,11.12-35.28,29.76S372.16,1.76,393.2,1.76c14.64,0,25.44-6.4,30.72-14.32L412.24-18.4C408.08-12,401.92-9.28,393.6-9.28ZM488.96-56h-61.6v11.04h24.32V0h12.8V-44.96h24.48Z" transform="translate(58.26 489.46) rotate(-90)" fill="none" stroke="#f5d002" stroke-width="1"/>
</svg>
