<svg version="1.1" viewBox="0.0 0.0 755.9055118110236 755.9055118110236" fill="none" stroke="none" stroke-linecap="square" stroke-miterlimit="10" xmlns:xlink="http://www.w3.org/1999/xlink" xmlns="http://www.w3.org/2000/svg"><clipPath id="g28723f62362_0_0.0"><path d="m0 0l755.9055 0l0 755.9055l-755.9055 0l0 -755.9055z" clip-rule="nonzero"/></clipPath><g clip-path="url(#g28723f62362_0_0.0)"><path fill="#ffffff" fill-opacity="0.0" d="m0 0l755.9055 0l0 755.9055l-755.9055 0z" fill-rule="evenodd"/><path fill="#e63a00" d="m305.4134 80.67716l0 0c0 -40.13849 34.096863 -72.67716 76.15747 -72.67716l0 0c20.198212 0 39.569183 7.657037 53.85147 21.28665c14.282288 13.62961 22.306 32.115334 22.306 51.39051l0 0c0 40.138496 -34.096863 72.67716 -76.15747 72.67716l0 0c-42.060608 0 -76.15747 -32.538666 -76.15747 -72.67716z" fill-rule="evenodd"/><path stroke="#e63a00" stroke-width="1.0" stroke-linejoin="round" stroke-linecap="butt" d="m305.4134 80.67716l0 0c0 -40.13849 34.096863 -72.67716 76.15747 -72.67716l0 0c20.198212 0 39.569183 7.657037 53.85147 21.28665c14.282288 13.62961 22.306 32.115334 22.306 51.39051l0 0c0 40.138496 -34.096863 72.67716 -76.15747 72.67716l0 0c-42.060608 0 -76.15747 -32.538666 -76.15747 -72.67716z" fill-rule="evenodd"/><path fill="#e63a00" d="m526.5525 177.63255l0 0c0 -40.138504 34.096863 -72.67717 76.15747 -72.67717l0 0c20.198242 0 39.569214 7.657036 53.8515 21.286644c14.282288 13.629616 22.30597 32.115334 22.30597 51.390526l0 0c0 40.13849 -34.096863 72.677155 -76.15747 72.677155l0 0c-42.060608 0 -76.15747 -32.538666 -76.15747 -72.677155z" fill-rule="evenodd"/><path stroke="#e63a00" stroke-width="1.0" stroke-linejoin="round" stroke-linecap="butt" d="m526.5525 177.63255l0 0c0 -40.138504 34.096863 -72.67717 76.15747 -72.67717l0 0c20.198242 0 39.569214 7.657036 53.8515 21.286644c14.282288 13.629616 22.30597 32.115334 22.30597 51.390526l0 0c0 40.13849 -34.096863 72.677155 -76.15747 72.677155l0 0c-42.060608 0 -76.15747 -32.538666 -76.15747 -72.677155z" fill-rule="evenodd"/><path fill="#e63a00" d="m599.2087 383.6168l0 0c0 -40.13849 34.096863 -72.677155 76.15747 -72.677155l0 0c20.198181 0 39.569153 7.6570435 53.85144 21.286652c14.282349 13.629608 22.30603 32.115326 22.30603 51.390503l0 0c0 40.13849 -34.096863 72.677185 -76.15747 72.677185l0 0c-42.060608 0 -76.15747 -32.538696 -76.15747 -72.677185z" fill-rule="evenodd"/><path stroke="#e63a00" stroke-width="1.0" stroke-linejoin="round" stroke-linecap="butt" d="m599.2087 383.6168l0 0c0 -40.13849 34.096863 -72.677155 76.15747 -72.677155l0 0c20.198181 0 39.569153 7.6570435 53.85144 21.286652c14.282349 13.629608 22.30603 32.115326 22.30603 51.390503l0 0c0 40.13849 -34.096863 72.677185 -76.15747 72.677185l0 0c-42.060608 0 -76.15747 -32.538696 -76.15747 -72.677185z" fill-rule="evenodd"/><path fill="#e63a00" d="m75.81759 177.63255l0 0c0 -40.138504 34.096863 -72.67717 76.15748 -72.67717l0 0c20.198212 0 39.569168 7.657036 53.85147 21.286644c14.282303 13.629616 22.306015 32.115334 22.306015 51.390526l0 0c0 40.13849 -34.096878 72.677155 -76.157486 72.677155l0 0c-42.060616 0 -76.15748 -32.538666 -76.15748 -72.677155z" fill-rule="evenodd"/><path stroke="#e63a00" stroke-width="1.0" stroke-linejoin="round" stroke-linecap="butt" d="m75.81759 177.63255l0 0c0 -40.138504 34.096863 -72.67717 76.15748 -72.67717l0 0c20.198212 0 39.569168 7.657036 53.85147 21.286644c14.282303 13.629616 22.306015 32.115334 22.306015 51.390526l0 0c0 40.13849 -34.096878 72.677155 -76.157486 72.677155l0 0c-42.060616 0 -76.15748 -32.538666 -76.15748 -72.677155z" fill-rule="evenodd"/><path fill="#e63a00" d="m4.3792653 383.6168l0 0c0 -40.13849 34.096867 -72.677155 76.15748 -72.677155l0 0c20.19822 0 39.569176 7.6570435 53.85147 21.286652c14.282303 13.629608 22.306015 32.115326 22.306015 51.390503l0 0c0 40.13849 -34.09687 72.677185 -76.157486 72.677185l0 0c-42.06061 0 -76.15748 -32.538696 -76.15748 -72.677185z" fill-rule="evenodd"/><path stroke="#e63a00" stroke-width="1.0" stroke-linejoin="round" stroke-linecap="butt" d="m4.3792653 383.6168l0 0c0 -40.13849 34.096867 -72.677155 76.15748 -72.677155l0 0c20.19822 0 39.569176 7.6570435 53.85147 21.286652c14.282303 13.629608 22.306015 32.115326 22.306015 51.390503l0 0c0 40.13849 -34.09687 72.677185 -76.157486 72.677185l0 0c-42.06061 0 -76.15748 -32.538696 -76.15748 -72.677185z" fill-rule="evenodd"/><path fill="#ffffff" fill-opacity="0.0" d="m188.2664 383.6168l0 0c0 -18.873352 15.779312 -34.173218 35.244095 -34.173218l0 0c9.347321 0 18.311783 3.6003723 24.92134 10.009094c6.609543 6.408722 10.322769 15.10083 10.322769 24.164124l0 0c0 18.873352 -15.779327 34.17325 -35.24411 34.17325l0 0c-19.464783 0 -35.244095 -15.299896 -35.244095 -34.17325z" fill-rule="evenodd"/><path stroke="#e63a00" stroke-width="12.0" stroke-linejoin="round" stroke-linecap="butt" d="m188.2664 383.6168l0 0c0 -18.873352 15.779312 -34.173218 35.244095 -34.173218l0 0c9.347321 0 18.311783 3.6003723 24.92134 10.009094c6.609543 6.408722 10.322769 15.10083 10.322769 24.164124l0 0c0 18.873352 -15.779327 34.17325 -35.24411 34.17325l0 0c-19.464783 0 -35.244095 -15.299896 -35.244095 -34.17325z" fill-rule="evenodd"/><path fill="#ffffff" fill-opacity="0.0" d="m343.62598 539.33856l0 0c0 -18.873352 15.779327 -34.173218 35.24411 -34.173218l0 0c9.347321 0 18.311768 3.6004028 24.921326 10.009094c6.609558 6.4087524 10.322754 15.10083 10.322754 24.164124l0 0c0 18.873352 -15.779297 34.17328 -35.24408 34.17328l0 0c-19.464783 0 -35.24411 -15.299927 -35.24411 -34.17328z" fill-rule="evenodd"/><path stroke="#e63a00" stroke-width="12.0" stroke-linejoin="round" stroke-linecap="butt" d="m343.62598 539.33856l0 0c0 -18.873352 15.779327 -34.173218 35.24411 -34.173218l0 0c9.347321 0 18.311768 3.6004028 24.921326 10.009094c6.609558 6.4087524 10.322754 15.10083 10.322754 24.164124l0 0c0 18.873352 -15.779297 34.17328 -35.24408 34.17328l0 0c-19.464783 0 -35.24411 -15.299927 -35.24411 -34.17328z" fill-rule="evenodd"/><path fill="#ffffff" fill-opacity="0.0" d="m343.62598 227.19423l0 0c0 -18.873352 15.779327 -34.173233 35.24411 -34.173233l0 0c9.347321 0 18.311768 3.6003876 24.921326 10.0091095c6.609558 6.408722 10.322754 15.100815 10.322754 24.164124l0 0c0 18.873352 -15.779297 34.173233 -35.24408 34.173233l0 0c-19.464783 0 -35.24411 -15.299881 -35.24411 -34.173233z" fill-rule="evenodd"/><path stroke="#e63a00" stroke-width="12.0" stroke-linejoin="round" stroke-linecap="butt" d="m343.62598 227.19423l0 0c0 -18.873352 15.779327 -34.173233 35.24411 -34.173233l0 0c9.347321 0 18.311768 3.6003876 24.921326 10.0091095c6.609558 6.408722 10.322754 15.100815 10.322754 24.164124l0 0c0 18.873352 -15.779297 34.173233 -35.24408 34.173233l0 0c-19.464783 0 -35.24411 -15.299881 -35.24411 -34.173233z" fill-rule="evenodd"/><path fill="#ffffff" fill-opacity="0.0" d="m454.10892 276.48294l0 0c0 -18.873352 15.779327 -34.173233 35.24411 -34.173233l0 0c9.347321 0 18.311768 3.6003876 24.921326 10.0091095c6.609558 6.408722 10.322754 15.10083 10.322754 24.164124l0 0c0 18.873352 -15.779327 34.173218 -35.24408 34.173218l0 0c-19.464783 0 -35.24411 -15.299866 -35.24411 -34.173218z" fill-rule="evenodd"/><path stroke="#e63a00" stroke-width="12.0" stroke-linejoin="round" stroke-linecap="butt" d="m454.10892 276.48294l0 0c0 -18.873352 15.779327 -34.173233 35.24411 -34.173233l0 0c9.347321 0 18.311768 3.6003876 24.921326 10.0091095c6.609558 6.408722 10.322754 15.10083 10.322754 24.164124l0 0c0 18.873352 -15.779327 34.173218 -35.24408 34.173218l0 0c-19.464783 0 -35.24411 -15.299866 -35.24411 -34.173218z" fill-rule="evenodd"/><path fill="#ffffff" fill-opacity="0.0" d="m497.1483 380.75198l0 0c0 -18.873383 15.779327 -34.17325 35.24411 -34.17325l0 0c9.34729 0 18.311768 3.6004028 24.921326 10.009125c6.609558 6.408722 10.322754 15.1008 10.322754 24.164124l0 0c0 18.873352 -15.779297 34.173218 -35.24408 34.173218l0 0c-19.464783 0 -35.24411 -15.299866 -35.24411 -34.173218z" fill-rule="evenodd"/><path stroke="#e63a00" stroke-width="12.0" stroke-linejoin="round" stroke-linecap="butt" d="m497.1483 380.75198l0 0c0 -18.873383 15.779327 -34.17325 35.24411 -34.17325l0 0c9.34729 0 18.311768 3.6004028 24.921326 10.009125c6.609558 6.408722 10.322754 15.1008 10.322754 24.164124l0 0c0 18.873352 -15.779297 34.173218 -35.24408 34.173218l0 0c-19.464783 0 -35.24411 -15.299866 -35.24411 -34.173218z" fill-rule="evenodd"/><path fill="#e63a00" d="m301.7953 675.22833l0 0c0 -40.13849 34.096863 -72.677124 76.15747 -72.677124l0 0c20.198212 0 39.569183 7.6569824 53.85147 21.286621c14.282288 13.629639 22.306 32.115356 22.306 51.390503l0 0c0 40.13849 -34.096863 72.677185 -76.15747 72.677185l0 0c-42.060608 0 -76.15747 -32.538696 -76.15747 -72.677185z" fill-rule="evenodd"/><path stroke="#e63a00" stroke-width="1.0" stroke-linejoin="round" stroke-linecap="butt" d="m301.7953 675.22833l0 0c0 -40.13849 34.096863 -72.677124 76.15747 -72.677124l0 0c20.198212 0 39.569183 7.6569824 53.85147 21.286621c14.282288 13.629639 22.306 32.115356 22.306 51.390503l0 0c0 40.13849 -34.096863 72.677185 -76.15747 72.677185l0 0c-42.060608 0 -76.15747 -32.538696 -76.15747 -72.677185z" fill-rule="evenodd"/><path fill="#e63a00" d="m87.52231 589.6011l0 0c0 -40.13849 34.09687 -72.677185 76.157486 -72.677185l0 0c20.198212 0 39.569168 7.6570435 53.85147 21.286621c14.282288 13.629639 22.306 32.115356 22.306 51.390564l0 0c0 40.13849 -34.096863 72.677124 -76.15747 72.677124l0 0c-42.060616 0 -76.157486 -32.538635 -76.157486 -72.677124z" fill-rule="evenodd"/><path stroke="#e63a00" stroke-width="1.0" stroke-linejoin="round" stroke-linecap="butt" d="m87.52231 589.6011l0 0c0 -40.13849 34.09687 -72.677185 76.157486 -72.677185l0 0c20.198212 0 39.569168 7.6570435 53.85147 21.286621c14.282288 13.629639 22.306 32.115356 22.306 51.390564l0 0c0 40.13849 -34.096863 72.677124 -76.15747 72.677124l0 0c-42.060616 0 -76.157486 -32.538635 -76.157486 -72.677124z" fill-rule="evenodd"/><path fill="#e63a00" d="m526.55383 583.8714l0 0c0 -40.13849 34.096863 -72.677185 76.15747 -72.677185l0 0c20.198181 0 39.569153 7.6570435 53.85144 21.286682c14.282288 13.629578 22.30603 32.115295 22.30603 51.390503l0 0c0 40.13849 -34.096863 72.677185 -76.15747 72.677185l0 0c-42.060608 0 -76.15747 -32.538696 -76.15747 -72.677185z" fill-rule="evenodd"/><path stroke="#e63a00" stroke-width="1.0" stroke-linejoin="round" stroke-linecap="butt" d="m526.55383 583.8714l0 0c0 -40.13849 34.096863 -72.677185 76.15747 -72.677185l0 0c20.198181 0 39.569153 7.6570435 53.85144 21.286682c14.282288 13.629578 22.30603 32.115295 22.30603 51.390503l0 0c0 40.13849 -34.096863 72.677185 -76.15747 72.677185l0 0c-42.060608 0 -76.15747 -32.538696 -76.15747 -72.677185z" fill-rule="evenodd"/><path fill="#ffffff" fill-opacity="0.0" d="m454.10892 490.75067l0 0c0 -18.873383 15.779327 -34.17325 35.24411 -34.17325l0 0c9.347321 0 18.311768 3.6004028 24.921326 10.009125c6.609558 6.408722 10.322754 15.1008 10.322754 24.164124l0 0c0 18.873352 -15.779327 34.173218 -35.24408 34.173218l0 0c-19.464783 0 -35.24411 -15.299866 -35.24411 -34.173218z" fill-rule="evenodd"/><path stroke="#e63a00" stroke-width="12.0" stroke-linejoin="round" stroke-linecap="butt" d="m454.10892 490.75067l0 0c0 -18.873383 15.779327 -34.17325 35.24411 -34.17325l0 0c9.347321 0 18.311768 3.6004028 24.921326 10.009125c6.609558 6.408722 10.322754 15.1008 10.322754 24.164124l0 0c0 18.873352 -15.779327 34.173218 -35.24408 34.173218l0 0c-19.464783 0 -35.24411 -15.299866 -35.24411 -34.173218z" fill-rule="evenodd"/><path fill="#ffffff" fill-opacity="0.0" d="m233.14305 490.75067l0 0c0 -18.873383 15.779312 -34.17325 35.244095 -34.17325l0 0c9.347321 0 18.311768 3.6004028 24.921326 10.009125c6.609558 6.408722 10.322754 15.1008 10.322754 24.164124l0 0c0 18.873352 -15.779297 34.173218 -35.24408 34.173218l0 0c-19.464783 0 -35.244095 -15.299866 -35.244095 -34.173218z" fill-rule="evenodd"/><path stroke="#e63a00" stroke-width="12.0" stroke-linejoin="round" stroke-linecap="butt" d="m233.14305 490.75067l0 0c0 -18.873383 15.779312 -34.17325 35.244095 -34.17325l0 0c9.347321 0 18.311768 3.6004028 24.921326 10.009125c6.609558 6.408722 10.322754 15.1008 10.322754 24.164124l0 0c0 18.873352 -15.779297 34.173218 -35.24408 34.173218l0 0c-19.464783 0 -35.244095 -15.299866 -35.244095 -34.173218z" fill-rule="evenodd"/><path fill="#ffffff" fill-opacity="0.0" d="m233.14305 276.48294l0 0c0 -18.873352 15.779312 -34.173233 35.244095 -34.173233l0 0c9.347321 0 18.311768 3.6003876 24.921326 10.0091095c6.609558 6.408722 10.322754 15.10083 10.322754 24.164124l0 0c0 18.873352 -15.779297 34.173218 -35.24408 34.173218l0 0c-19.464783 0 -35.244095 -15.299866 -35.244095 -34.173218z" fill-rule="evenodd"/><path stroke="#e63a00" stroke-width="12.0" stroke-linejoin="round" stroke-linecap="butt" d="m233.14305 276.48294l0 0c0 -18.873352 15.779312 -34.173233 35.244095 -34.173233l0 0c9.347321 0 18.311768 3.6003876 24.921326 10.0091095c6.609558 6.408722 10.322754 15.10083 10.322754 24.164124l0 0c0 18.873352 -15.779297 34.173218 -35.24408 34.173218l0 0c-19.464783 0 -35.244095 -15.299866 -35.244095 -34.173218z" fill-rule="evenodd"/></g></svg>