<svg xmlns="http://www.w3.org/2000/svg" width="240" height="45" viewBox="0 0 240 45">
  <g id="グループ_7" data-name="グループ 7" transform="translate(-487 -1115)">
    <rect id="長方形_1" data-name="長方形 1" width="240" height="45" rx="22.5" transform="translate(487 1115)" fill="#f5d002"/>
    <path id="パス_214" data-name="パス 214" d="M-44.1-11.2l-5.2,6.416L-54.5-11.2h-2.08V0h1.856V-8.592l5.328,6.464h.112l5.328-6.464V0h1.92V-11.2ZM-32.48.336c4.3,0,6.96-2.24,6.96-5.936s-2.656-5.936-6.96-5.936S-39.44-9.3-39.44-5.6-36.784.336-32.48.336Zm0-1.7c-3.056,0-5.008-1.52-5.008-4.24s1.968-4.24,5.008-4.24,4.992,1.52,4.992,4.24S-29.44-1.36-32.48-1.36ZM-10.432,0l-3.632-4.16c1.952-.352,3.3-1.536,3.3-3.472,0-2.32-1.92-3.568-4.528-3.568h-7.616V0h1.92V-4.064h4.72L-12.8,0ZM-21.008-5.712V-9.52h5.584c1.6,0,2.688.512,2.688,1.9s-1.088,1.9-2.688,1.9ZM-6.16-1.68V-4.848H1.488v-1.68H-6.16V-9.52H2.928V-11.2H-8.064V0H3.088V-1.68ZM12.32,0V-11.2H10.4V0ZM26.128-11.2v8.5l-8.384-8.5H15.7V0h1.856V-8.832L26.3,0H28V-11.2ZM42.336-9.5v-1.7H31.376V0H33.3V-4.5h7.648V-6.208H33.3V-9.5ZM50.4.336c4.3,0,6.96-2.24,6.96-5.936S54.7-11.536,50.4-11.536,43.44-9.3,43.44-5.6,46.1.336,50.4.336Zm0-1.7c-3.056,0-5.008-1.52-5.008-4.24S47.36-9.84,50.4-9.84s4.992,1.52,4.992,4.24S53.44-1.36,50.4-1.36Z" transform="translate(607 1143)" fill="#fff"/>
  </g>
</svg>
