<svg xmlns="http://www.w3.org/2000/svg" width="60.52" height="305" viewBox="0 0 60.52 305">
  <path id="パス_222" data-name="パス 222" d="M58.88-56v38.4L21.12-56H7.52V0h12.4V-40.48L60.08,0h11.2V-56ZM99.04-10.72V-23.04h36.88V-33.76H99.04V-45.28H143.2V-56H86.32V0H144V-10.72ZM232.08-56,218.24-14.56,203.36-56h-12.4L176-14.56,162.24-56H148.8L169.28,0h12.88l14.88-42.24L211.76,0H224.8l20.48-56Zm49.04,21.52C270-35.36,262-35.84,262-40.64c0-5.12,9.28-6.48,16.88-6.4,9.12.08,16.72,2,22.88,6.72l7.04-8.88c-7.12-5.52-17.68-8.56-29.92-8.56-17.28,0-29.76,6.4-29.76,18.08,0,12,14.88,15.52,30.88,16.88,12.88,1.12,18.64,2.4,18.64,7.04s-5.76,6.8-17.12,6.8c-11.44,0-20.32-2.96-27.2-9.28l-7.36,8.72c8.56,7.28,20.08,11.28,34.24,11.28,19.84,0,30.32-7.68,30.32-18.72C311.52-29.28,298.96-33.04,281.12-34.48Z" transform="translate(58.26 312.02) rotate(-90)" fill="none" stroke="#f5d002" stroke-width="1"/>
</svg>
