<svg version="1.1" viewBox="0.0 0.0 755.9055118110236 755.9055118110236" fill="none" stroke="none" stroke-linecap="square" stroke-miterlimit="10" xmlns:xlink="http://www.w3.org/1999/xlink" xmlns="http://www.w3.org/2000/svg"><clipPath id="g2fd59ea783c_1_18.0"><path d="m0 0l755.9055 0l0 755.9055l-755.9055 0l0 -755.9055z" clip-rule="nonzero"/></clipPath><g clip-path="url(#g2fd59ea783c_1_18.0)"><path fill="#ffffff" fill-opacity="0.0" d="m0 0l755.9055 0l0 755.9055l-755.9055 0z" fill-rule="evenodd"/><path fill="#ffffff" fill-opacity="0.0" d="m188.2664 383.6168l0 0c0 -18.873352 15.779312 -34.173218 35.244095 -34.173218l0 0c9.347321 0 18.311783 3.6003723 24.92134 10.009094c6.609543 6.408722 10.322769 15.10083 10.322769 24.164124l0 0c0 18.873352 -15.779327 34.17325 -35.24411 34.17325l0 0c-19.464783 0 -35.244095 -15.299896 -35.244095 -34.17325z" fill-rule="evenodd"/><path stroke="#e63a00" stroke-width="12.0" stroke-linejoin="round" stroke-linecap="butt" d="m188.2664 383.6168l0 0c0 -18.873352 15.779312 -34.173218 35.244095 -34.173218l0 0c9.347321 0 18.311783 3.6003723 24.92134 10.009094c6.609543 6.408722 10.322769 15.10083 10.322769 24.164124l0 0c0 18.873352 -15.779327 34.17325 -35.24411 34.17325l0 0c-19.464783 0 -35.244095 -15.299896 -35.244095 -34.17325z" fill-rule="evenodd"/><path fill="#ffffff" fill-opacity="0.0" d="m343.62598 539.33856l0 0c0 -18.873352 15.779327 -34.173218 35.24411 -34.173218l0 0c9.347321 0 18.311768 3.6004028 24.921326 10.009094c6.609558 6.4087524 10.322754 15.10083 10.322754 24.164124l0 0c0 18.873352 -15.779297 34.17328 -35.24408 34.17328l0 0c-19.464783 0 -35.24411 -15.299927 -35.24411 -34.17328z" fill-rule="evenodd"/><path stroke="#e63a00" stroke-width="12.0" stroke-linejoin="round" stroke-linecap="butt" d="m343.62598 539.33856l0 0c0 -18.873352 15.779327 -34.173218 35.24411 -34.173218l0 0c9.347321 0 18.311768 3.6004028 24.921326 10.009094c6.609558 6.4087524 10.322754 15.10083 10.322754 24.164124l0 0c0 18.873352 -15.779297 34.17328 -35.24408 34.17328l0 0c-19.464783 0 -35.24411 -15.299927 -35.24411 -34.17328z" fill-rule="evenodd"/><path fill="#ffffff" fill-opacity="0.0" d="m343.62598 227.19423l0 0c0 -18.873352 15.779327 -34.173233 35.24411 -34.173233l0 0c9.347321 0 18.311768 3.6003876 24.921326 10.0091095c6.609558 6.408722 10.322754 15.100815 10.322754 24.164124l0 0c0 18.873352 -15.779297 34.173233 -35.24408 34.173233l0 0c-19.464783 0 -35.24411 -15.299881 -35.24411 -34.173233z" fill-rule="evenodd"/><path stroke="#e63a00" stroke-width="12.0" stroke-linejoin="round" stroke-linecap="butt" d="m343.62598 227.19423l0 0c0 -18.873352 15.779327 -34.173233 35.24411 -34.173233l0 0c9.347321 0 18.311768 3.6003876 24.921326 10.0091095c6.609558 6.408722 10.322754 15.100815 10.322754 24.164124l0 0c0 18.873352 -15.779297 34.173233 -35.24408 34.173233l0 0c-19.464783 0 -35.24411 -15.299881 -35.24411 -34.173233z" fill-rule="evenodd"/><path fill="#ffffff" fill-opacity="0.0" d="m454.10892 276.48294l0 0c0 -18.873352 15.779327 -34.173233 35.24411 -34.173233l0 0c9.347321 0 18.311768 3.6003876 24.921326 10.0091095c6.609558 6.408722 10.322754 15.10083 10.322754 24.164124l0 0c0 18.873352 -15.779327 34.173218 -35.24408 34.173218l0 0c-19.464783 0 -35.24411 -15.299866 -35.24411 -34.173218z" fill-rule="evenodd"/><path stroke="#e63a00" stroke-width="12.0" stroke-linejoin="round" stroke-linecap="butt" d="m454.10892 276.48294l0 0c0 -18.873352 15.779327 -34.173233 35.24411 -34.173233l0 0c9.347321 0 18.311768 3.6003876 24.921326 10.0091095c6.609558 6.408722 10.322754 15.10083 10.322754 24.164124l0 0c0 18.873352 -15.779327 34.173218 -35.24408 34.173218l0 0c-19.464783 0 -35.24411 -15.299866 -35.24411 -34.173218z" fill-rule="evenodd"/><path fill="#ffffff" fill-opacity="0.0" d="m497.1483 380.75198l0 0c0 -18.873383 15.779327 -34.17325 35.24411 -34.17325l0 0c9.34729 0 18.311768 3.6004028 24.921326 10.009125c6.609558 6.408722 10.322754 15.1008 10.322754 24.164124l0 0c0 18.873352 -15.779297 34.173218 -35.24408 34.173218l0 0c-19.464783 0 -35.24411 -15.299866 -35.24411 -34.173218z" fill-rule="evenodd"/><path stroke="#e63a00" stroke-width="12.0" stroke-linejoin="round" stroke-linecap="butt" d="m497.1483 380.75198l0 0c0 -18.873383 15.779327 -34.17325 35.24411 -34.17325l0 0c9.34729 0 18.311768 3.6004028 24.921326 10.009125c6.609558 6.408722 10.322754 15.1008 10.322754 24.164124l0 0c0 18.873352 -15.779297 34.173218 -35.24408 34.173218l0 0c-19.464783 0 -35.24411 -15.299866 -35.24411 -34.173218z" fill-rule="evenodd"/><path fill="#ffffff" fill-opacity="0.0" d="m454.10892 490.75067l0 0c0 -18.873383 15.779327 -34.17325 35.24411 -34.17325l0 0c9.347321 0 18.311768 3.6004028 24.921326 10.009125c6.609558 6.408722 10.322754 15.1008 10.322754 24.164124l0 0c0 18.873352 -15.779327 34.173218 -35.24408 34.173218l0 0c-19.464783 0 -35.24411 -15.299866 -35.24411 -34.173218z" fill-rule="evenodd"/><path stroke="#e63a00" stroke-width="12.0" stroke-linejoin="round" stroke-linecap="butt" d="m454.10892 490.75067l0 0c0 -18.873383 15.779327 -34.17325 35.24411 -34.17325l0 0c9.347321 0 18.311768 3.6004028 24.921326 10.009125c6.609558 6.408722 10.322754 15.1008 10.322754 24.164124l0 0c0 18.873352 -15.779327 34.173218 -35.24408 34.173218l0 0c-19.464783 0 -35.24411 -15.299866 -35.24411 -34.173218z" fill-rule="evenodd"/><path fill="#ffffff" fill-opacity="0.0" d="m233.14305 490.75067l0 0c0 -18.873383 15.779312 -34.17325 35.244095 -34.17325l0 0c9.347321 0 18.311768 3.6004028 24.921326 10.009125c6.609558 6.408722 10.322754 15.1008 10.322754 24.164124l0 0c0 18.873352 -15.779297 34.173218 -35.24408 34.173218l0 0c-19.464783 0 -35.244095 -15.299866 -35.244095 -34.173218z" fill-rule="evenodd"/><path stroke="#e63a00" stroke-width="12.0" stroke-linejoin="round" stroke-linecap="butt" d="m233.14305 490.75067l0 0c0 -18.873383 15.779312 -34.17325 35.244095 -34.17325l0 0c9.347321 0 18.311768 3.6004028 24.921326 10.009125c6.609558 6.408722 10.322754 15.1008 10.322754 24.164124l0 0c0 18.873352 -15.779297 34.173218 -35.24408 34.173218l0 0c-19.464783 0 -35.244095 -15.299866 -35.244095 -34.173218z" fill-rule="evenodd"/><path fill="#ffffff" fill-opacity="0.0" d="m233.14305 276.48294l0 0c0 -18.873352 15.779312 -34.173233 35.244095 -34.173233l0 0c9.347321 0 18.311768 3.6003876 24.921326 10.0091095c6.609558 6.408722 10.322754 15.10083 10.322754 24.164124l0 0c0 18.873352 -15.779297 34.173218 -35.24408 34.173218l0 0c-19.464783 0 -35.244095 -15.299866 -35.244095 -34.173218z" fill-rule="evenodd"/><path stroke="#e63a00" stroke-width="12.0" stroke-linejoin="round" stroke-linecap="butt" d="m233.14305 276.48294l0 0c0 -18.873352 15.779312 -34.173233 35.244095 -34.173233l0 0c9.347321 0 18.311768 3.6003876 24.921326 10.0091095c6.609558 6.408722 10.322754 15.10083 10.322754 24.164124l0 0c0 18.873352 -15.779297 34.173218 -35.24408 34.173218l0 0c-19.464783 0 -35.244095 -15.299866 -35.244095 -34.173218z" fill-rule="evenodd"/></g></svg>