<svg xmlns="http://www.w3.org/2000/svg" width="240" height="45" viewBox="0 0 240 45">
  <g id="グループ_37" data-name="グループ 37" transform="translate(-487 -1115)">
    <rect id="長方形_1" data-name="長方形 1" width="240" height="45" rx="22.5" transform="translate(487 1115)" fill="#f5d002"/>
    <path id="パス_227" data-name="パス 227" d="M-21.872-6.624c-2.448-.192-4.32-.4-4.32-1.584,0-1.248,2.112-1.68,3.888-1.664a6.9,6.9,0,0,1,4.592,1.5L-16.5-9.68a9.068,9.068,0,0,0-5.84-1.856c-3.216,0-5.792,1.232-5.792,3.456,0,2.288,2.912,2.976,6,3.232,2.816.24,4.224.544,4.224,1.7,0,1.168-1.376,1.824-3.872,1.824A7.89,7.89,0,0,1-27.344-3.3l-1.2,1.36A10.049,10.049,0,0,0-21.856.336c3.808,0,5.9-1.52,5.9-3.648C-15.952-5.648-18.384-6.352-21.872-6.624ZM-11.68-1.68V-4.848h7.648v-1.68H-11.68V-9.52h9.088V-11.2H-13.584V0H-2.432V-1.68ZM10.512-11.2v8.5L2.128-11.2H.08V0H1.936V-8.832L10.688,0h1.7V-11.2Zm10.928,0H15.76V0h5.68c4.16,0,6.816-2.144,6.816-5.6S25.6-11.2,21.44-11.2ZM21.3-1.68H17.68V-9.52H21.3c2.944,0,4.992,1.328,4.992,3.92S24.24-1.68,21.3-1.68Z" transform="translate(607 1143)" fill="#fff"/>
  </g>
</svg>
