<svg xmlns="http://www.w3.org/2000/svg" width="60.52" height="717.24" viewBox="0 0 60.52 717.24">
  <path id="パス_218" data-name="パス 218" d="M39.52,1.76c21.84,0,35.6-11.04,35.6-29.76S61.36-57.76,39.52-57.76,3.92-46.72,3.92-28,17.68,1.76,39.52,1.76Zm0-11.04C25.6-9.28,16.96-16,16.96-28s8.72-18.72,22.56-18.72S62.08-40,62.08-28,53.36-9.28,39.52-9.28ZM135.76-56v28.64c0,11.2-6.56,17.92-18.64,17.92S98.48-16.16,98.48-27.36V-56H85.68v29.6c0,16.8,11.12,28.16,31.44,28.16S148.56-9.6,148.56-26.4V-56ZM226.88,0,209.6-19.92c9.28-2.16,15.6-8.08,15.6-17.6,0-12.16-10.32-18.48-24-18.48H162.56V0h12.72V-19.04h20.24L211.6,0ZM175.2-29.6V-45.28h25.28c6.72,0,11.68,1.6,11.68,7.84s-4.96,7.84-11.68,7.84Zm113.12-4.88c-11.12-.88-19.12-1.36-19.12-6.16,0-5.12,9.28-6.48,16.88-6.4,9.12.08,16.72,2,22.88,6.72L316-49.2c-7.12-5.52-17.68-8.56-29.92-8.56-17.28,0-29.76,6.4-29.76,18.08,0,12,14.88,15.52,30.88,16.88,12.88,1.12,18.64,2.4,18.64,7.04s-5.76,6.8-17.12,6.8c-11.44,0-20.32-2.96-27.2-9.28l-7.36,8.72c8.56,7.28,20.08,11.28,34.24,11.28,19.84,0,30.32-7.68,30.32-18.72C318.72-29.28,306.16-33.04,288.32-34.48Zm53.52,23.76V-23.04h36.88V-33.76H341.84V-45.28H386V-56H329.12V0H386.8V-10.72ZM462.16,0,444.88-19.92c9.28-2.16,15.6-8.08,15.6-17.6,0-12.16-10.32-18.48-24-18.48H397.84V0h12.72V-19.04H430.8L446.88,0ZM410.48-29.6V-45.28h25.28c6.72,0,11.68,1.6,11.68,7.84s-4.96,7.84-11.68,7.84ZM462.72-56,490.96,0h13.52l28.24-56H518.88L497.84-12.72,476.72-56Zm90.4,56V-56h-12.8V0Zm46.56-9.28c-13.28,0-22.08-6.4-22.08-18.72s8.8-18.72,22.08-18.72c8.32,0,14.4,2.8,18.4,9.04l11.76-5.84c-5.12-7.76-15.92-14.24-30-14.24-21.6,0-35.28,11.12-35.28,29.76S578.24,1.76,599.28,1.76c14.64,0,25.44-6.4,30.72-14.32L618.32-18.4C614.16-12,608-9.28,599.68-9.28Zm52.64-1.44V-23.04H689.2V-33.76H652.32V-45.28h44.16V-56H639.6V0h57.68V-10.72ZM712.64.96c4.4,0,7.52-2.8,7.52-6.64,0-3.76-3.12-6.72-7.52-6.72-4.48,0-7.6,2.96-7.6,6.72C705.04-1.84,708.16.96,712.64.96Z" transform="translate(58.26 720.66) rotate(-90)" fill="none" stroke="#f5d002" stroke-width="1"/>
</svg>
